<svg aria-hidden="true" style="width:0;height:0;position:absolute;overflow:hidden" xmlns="http://www.w3.org/2000/svg"><defs><symbol id="icon-delivery" viewBox="0 0 32 32"><path d="M25.113 12.906a.467.467 0 0 0-.381-.2h-2.906v-1.238a.472.472 0 0 0-.469-.469H10.826a.473.473 0 0 0-.469.469v7.575c0 .256.213.469.469.469h1.325c.244.85 1.031 1.481 1.956 1.481s1.713-.625 1.956-1.481h5.194c.244.85 1.031 1.481 1.956 1.481s1.712-.625 1.956-1.481h.969a.472.472 0 0 0 .469-.469v-3.856c0-.1-.031-.194-.087-.269l-1.406-2.012zm.562 2.419h-2.1V13.65h.919l1.181 1.675zm-14.381-3.381h9.594v6.638h-4.781c-.181-.944-1.006-1.656-2-1.656s-1.825.712-2 1.656h-.813v-6.637zm2.812 8.112c-.606 0-1.1-.494-1.1-1.1s.494-1.1 1.1-1.1 1.1.494 1.1 1.1-.494 1.1-1.1 1.1zm9.113 0c-.606 0-1.1-.494-1.1-1.1s.494-1.1 1.1-1.1 1.1.494 1.1 1.1-.494 1.1-1.1 1.1zm2-1.475a2.038 2.038 0 0 0-2-1.656c-.538 0-1.031.212-1.394.556V13.65h.806v2.144c0 .256.212.469.469.469h2.581v2.319h-.462zM5.85 11.944h3.344c.256 0 .469-.213.469-.469s-.213-.469-.469-.469H5.85c-.256 0-.469.213-.469.469s.213.469.469.469zm3.344.769H6.619c-.256 0-.469.213-.469.469s.213.469.469.469h2.575a.468.468 0 1 0 0-.938zm0 1.706H7.569c-.256 0-.469.213-.469.469s.213.469.469.469h1.625a.468.468 0 1 0 0-.938zm0 1.706h-.563c-.256 0-.469.212-.469.469s.213.469.469.469h.563c.256 0 .469-.212.469-.469s-.206-.469-.469-.469z"/></symbol><symbol id="icon-person" viewBox="0 0 32 32"><path d="M16 16a5.333 5.333 0 1 0 0-10.666A5.333 5.333 0 1 0 16 16zm0 2.667c-3.561 0-10.667 1.787-10.667 5.333v1.333c0 .732.599 1.333 1.333 1.333h18.667c.732 0 1.333-.601 1.333-1.333V24c0-3.547-7.108-5.333-10.667-5.333z"/></symbol><symbol id="icon-phone" viewBox="0 0 32 32"><path d="m24.882 19.774-3.268-.373a2.555 2.555 0 0 0-2.11.732l-2.368 2.368c-3.669-1.894-6.585-4.81-8.427-8.372l-.051-.108 2.382-2.377a2.552 2.552 0 0 0 .731-2.122l.001.012-.373-3.243a2.578 2.578 0 0 0-2.557-2.276H6.613c-1.454 0-2.663 1.209-2.574 2.663.683 10.987 9.47 19.76 20.444 20.443 1.452.089 2.663-1.12 2.663-2.574v-2.238a2.549 2.549 0 0 0-2.253-2.532l-.012-.001z"/></symbol><symbol id="icon-cash" viewBox="0 0 32 32"><path d="M25.333 5.333H6.666a4 4 0 0 0-4 4v13.333a4 4 0 0 0 4 4h18.667a4 4 0 0 0 4-4V9.333a4 4 0 0 0-4-4zm1.334 13.734h-4a3.067 3.067 0 1 1 0-6.134h4zm0-8.4h-4a5.333 5.333 0 1 0 0 10.666h4v1.333c0 .736-.597 1.333-1.333 1.333H6.667a1.333 1.333 0 0 1-1.333-1.333V9.333C5.334 8.597 5.931 8 6.667 8h18.667c.736 0 1.333.597 1.333 1.333zM21.333 16a1.333 1.333 0 1 0 1.333-1.333c-.736 0-1.333.597-1.333 1.333z"/></symbol><symbol id="icon-google_pay" viewBox="0 0 40 32"><path d="M6.607 13.438v2.578h3.569a3.114 3.114 0 0 1-1.311 2.031l-.011.007c-.596.409-1.357.642-2.25.642-1.725 0-3.183-1.182-3.706-2.764-.13-.383-.205-.823-.205-1.281s.075-.899.214-1.31l-.008.029c.523-1.591 1.981-2.773 3.706-2.773l.066-.001c.96 0 1.831.384 2.467 1.006l-.001-.001 1.893-1.914a6.305 6.305 0 0 0-4.358-1.74h-.067.003a6.595 6.595 0 0 0-5.881 3.656l-.017.038c-.447.876-.709 1.91-.709 3.006s.262 2.13.726 3.044l-.018-.038v.009c1.095 2.197 3.323 3.681 5.898 3.688h.001c1.779 0 3.284-.596 4.375-1.619 1.25-1.163 1.963-2.884 1.963-4.932v-.013c0-.476-.04-.943-.116-1.397l.007.049zm24.339-.25c-.633-.586-1.496-.884-2.587-.884-1.404 0-2.459.521-3.156 1.554l1.303.829q.716-1.063 1.954-1.063c.548.001 1.047.21 1.424.551l-.002-.002c.372.324.605.798.606 1.327v.344c-.569-.317-1.284-.484-2.165-.484-1.027 0-1.853.242-2.468.736s-.926 1.144-.926 1.973l-.001.065c0 .755.337 1.431.869 1.887l.003.003c.578.521 1.313.782 2.174.782 1.018 0 1.826-.456 2.438-1.368h.063v1.107h1.413v-4.919c.004-1.034-.308-1.854-.941-2.438zm-1.202 5.581a2.328 2.328 0 0 1-1.66.698h-.03c-.424 0-.813-.147-1.119-.394l.003.003a1.214 1.214 0 0 1-.486-.971v-.006c0-.438.201-.801.596-1.089s.908-.438 1.504-.438c.823-.01 1.466.177 1.925.549 0 .633-.247 1.182-.734 1.648zm-5.853-8.875a3.47 3.47 0 0 0-2.462-1.019l-.074.001h.004-3.917v11.671h1.477V15.82h2.438c1 0 1.844-.335 2.532-.996l.166-.168a3.39 3.39 0 0 0 .894-2.299c0-.969-.405-1.844-1.056-2.464l-.001-.001zm-1.037 3.889c-.35.373-.847.606-1.398.606l-.064-.001h.003-2.477v-4.076h2.484c.548 0 1.044.22 1.405.577.377.376.61.895.61 1.469 0 .551-.215 1.052-.565 1.423l.001-.001zm15.54-1.22-2.284 5.731h-.028l-2.339-5.731h-1.606l3.237 7.472-1.834 4.02h1.522L40 12.563z"/></symbol><symbol id="icon-mastercard" viewBox="0 0 32 32"><path fill="#ff9800" style="fill:var(--color1,#ff9800)" d="M21.333 6.667a9.333 9.333 0 1 0 0 18.666 9.333 9.333 0 1 0 0-18.666z"/><path fill="#d50000" style="fill:var(--color2,#d50000)" d="M10.667 6.667a9.333 9.333 0 1 0 0 18.666 9.333 9.333 0 1 0 0-18.666z"/><path fill="#ff3d00" style="fill:var(--color3,#ff3d00)" d="M12 16a9.316 9.316 0 0 0 4 7.653c2.416-1.687 4-4.483 4-7.653s-1.584-5.967-4-7.653A9.317 9.317 0 0 0 12 16z"/></symbol><symbol id="icon-close" viewBox="0 0 32 32"><path d="M32 3.223 28.777 0 16 12.777 3.223 0 0 3.223 12.777 16 0 28.777 3.223 32 16 19.223 28.777 32 32 28.777 19.223 16 32 3.223z"/></symbol></defs></svg>